<svg xmlns="http://www.w3.org/2000/svg" xmlns:xlink="http://www.w3.org/1999/xlink" width="40" height="39" viewBox="0 0 40 39">
  <defs>
    <clipPath id="clip-path">
      <rect id="Retângulo_11" data-name="Retângulo 11" width="40" height="39" transform="translate(830 1201)" fill="#484b4d" stroke="#707070" stroke-width="1"/>
    </clipPath>
  </defs>
  <g id="insta" transform="translate(-830 -1201)" clip-path="url(#clip-path)">
    <g id="instagram" transform="translate(830.508 1201.001)">
      <path id="Caminho_5" data-name="Caminho 5" d="M19.5,3.512c5.211,0,5.828.023,7.877.115A10.689,10.689,0,0,1,31,4.3a6.036,6.036,0,0,1,2.239,1.455A6.113,6.113,0,0,1,34.7,7.993a10.732,10.732,0,0,1,.67,3.619c.091,2.058.115,2.674.115,7.878s-.023,5.828-.115,7.878a10.689,10.689,0,0,1-.67,3.619,6.021,6.021,0,0,1-1.455,2.239,6.118,6.118,0,0,1-2.239,1.463,10.739,10.739,0,0,1-3.619.67c-2.058.091-2.674.115-7.878.115s-5.828-.023-7.878-.115a10.689,10.689,0,0,1-3.619-.67,6.036,6.036,0,0,1-2.24-1.455,6.118,6.118,0,0,1-1.463-2.239,10.739,10.739,0,0,1-.67-3.619c-.091-2.058-.115-2.674-.115-7.878s.023-5.828.115-7.878A10.689,10.689,0,0,1,4.309,8a6.051,6.051,0,0,1,1.455-2.24A6.113,6.113,0,0,1,8,4.3a10.732,10.732,0,0,1,3.619-.67c2.049-.091,2.667-.115,7.878-.115ZM19.5,0c-5.3,0-5.957.023-8.038.115a14.236,14.236,0,0,0-4.731.907A9.5,9.5,0,0,0,3.277,3.277,9.548,9.548,0,0,0,1.021,6.727a14.283,14.283,0,0,0-.907,4.731C.023,13.546,0,14.208,0,19.5s.023,5.957.115,8.038a14.236,14.236,0,0,0,.907,4.731A9.518,9.518,0,0,0,3.277,35.73a9.532,9.532,0,0,0,3.451,2.248,14.283,14.283,0,0,0,4.731.907c2.08.091,2.743.115,8.038.115s5.958-.023,8.038-.115a14.237,14.237,0,0,0,4.731-.907,9.968,9.968,0,0,0,5.7-5.7,14.283,14.283,0,0,0,.907-4.731c.091-2.08.115-2.743.115-8.038s-.023-5.957-.115-8.038a14.236,14.236,0,0,0-.907-4.731,9.15,9.15,0,0,0-2.232-3.467A9.532,9.532,0,0,0,32.28,1.028,14.283,14.283,0,0,0,27.549.121C25.462.022,24.8,0,19.5,0h0Z"/>
      <path id="Caminho_6" data-name="Caminho 6" d="M19.5,9.485A10.018,10.018,0,1,0,29.522,19.5,10.021,10.021,0,0,0,19.5,9.485ZM19.5,26A6.5,6.5,0,1,1,26,19.5,6.5,6.5,0,0,1,19.5,26Z"/>
      <path id="Caminho_7" data-name="Caminho 7" d="M32.256,9.088a2.339,2.339,0,1,1-2.339-2.339A2.339,2.339,0,0,1,32.256,9.088Z"/>
    </g>
  </g>
</svg>
