<svg xmlns="http://www.w3.org/2000/svg" xmlns:xlink="http://www.w3.org/1999/xlink" width="40" height="39" viewBox="0 0 40 39">
  <defs>
    <clipPath id="clip-path">
      <rect id="Retângulo_12" data-name="Retângulo 12" width="40" height="39" transform="translate(890 1201)" fill="#484b4d" stroke="#707070" stroke-width="1"/>
    </clipPath>
  </defs>
  <g id="wpp" transform="translate(-890 -1201)" clip-path="url(#clip-path)">
    <path id="whatsapp" d="M24.816,24.54a24.5,24.5,0,0,1,4.711,2.444,1.034,1.034,0,0,1,.051.378,5.564,5.564,0,0,1-.429,1.915c-.58,1.411-2.922,2.318-4.358,2.318A16.42,16.42,0,0,1,20,30.032c-3.6-1.638-5.845-4.434-8.012-7.634A8.909,8.909,0,0,1,10.2,17.511v-.2a5.293,5.293,0,0,1,1.864-3.98,1.832,1.832,0,0,1,1.311-.554c.3,0,.605.076.933.076.68,0,.806.2,1.058.856.176.429,1.462,3.855,1.462,4.107,0,.958-1.738,2.04-1.738,2.62a.758.758,0,0,0,.126.378,12.722,12.722,0,0,0,2.569,3.451,14.764,14.764,0,0,0,3.8,2.545,1.113,1.113,0,0,0,.554.176c.756,0,2.016-2.444,2.671-2.444ZM19.7,37.892A15.868,15.868,0,1,0,6.9,31.342L4.913,37.212l6.1-1.94a15.929,15.929,0,0,0,8.693,2.62Zm0-34.818a19,19,0,1,1-9.2,35.624L0,42.074l3.427-10.2A19,19,0,0,1,19.7,3.074Z" transform="translate(890.651 1197.926)"/>
  </g>
</svg>
